<!-- This is a placeholder SVG for hotel-placeholder.jpg -->
<svg width="400" height="250" viewBox="0 0 400 250" xmlns="http://www.w3.org/2000/svg">
  <rect width="400" height="250" fill="#e9ecef"/>
  <text x="200" y="125" text-anchor="middle" font-family="Arial, sans-serif" font-size="18" fill="#6c757d">
    Hotel Placeholder
  </text>
  <rect x="150" y="80" width="100" height="90" fill="#dc3545" opacity="0.7"/>
  <rect x="160" y="90" width="15" height="20" fill="#ffffff" opacity="0.8"/>
  <rect x="180" y="90" width="15" height="20" fill="#ffffff" opacity="0.8"/>
  <rect x="200" y="90" width="15" height="20" fill="#ffffff" opacity="0.8"/>
  <rect x="220" y="90" width="15" height="20" fill="#ffffff" opacity="0.8"/>
  <rect x="160" y="120" width="15" height="20" fill="#ffffff" opacity="0.8"/>
  <rect x="180" y="120" width="15" height="20" fill="#ffffff" opacity="0.8"/>
  <rect x="200" y="120" width="15" height="20" fill="#ffffff" opacity="0.8"/>
  <rect x="220" y="120" width="15" height="20" fill="#ffffff" opacity="0.8"/>
  <rect x="160" y="150" width="15" height="20" fill="#ffffff" opacity="0.8"/>
  <rect x="180" y="150" width="15" height="20" fill="#ffffff" opacity="0.8"/>
  <rect x="200" y="150" width="15" height="20" fill="#ffffff" opacity="0.8"/>
  <rect x="220" y="150" width="15" height="20" fill="#ffffff" opacity="0.8"/>
  <rect x="190" y="155" width="20" height="15" fill="#ffc107"/>
</svg>